M48
METRIC,TZ
T1C0.400
T2C0.701
T3C0.800
T4C0.813
T5C1.000
T6C1.016
T7C1.100
T8C1.501
T9C2.200
T10C3.200
%
G90
G05
T1
X65040Y-130570
X70520Y-127980
X75830Y-93610
X78460Y-82230
X96500Y-83710
X115420Y-83900
X124050Y-83820
X127810Y-118730
T2
X84850Y-121960
X84850Y-132120
X93950Y-121830
X93950Y-131990
X103060Y-121940
X103060Y-132100
X112120Y-122000
X112120Y-132160
T3
X72960Y-120780
X73040Y-128280
X75460Y-120780
X75540Y-128280
T4
X53210Y-90420
X53210Y-92960
X53210Y-95500
X53210Y-98040
X53210Y-100580
X53210Y-103120
X53210Y-105660
X53210Y-108200
X53210Y-110740
X53210Y-113280
X53210Y-115820
X53210Y-118360
X53210Y-120900
X53210Y-123440
X53210Y-125980
X68450Y-90420
X68450Y-92960
X68450Y-95500
X68450Y-98040
X68450Y-100580
X68450Y-103120
X68450Y-105660
X68450Y-108200
X68450Y-110740
X68450Y-113280
X68450Y-115820
X68450Y-118360
X68450Y-120900
X68450Y-123440
X68450Y-125980
T5
X81950Y-113530
X84490Y-113530
X87030Y-113530
X94300Y-113560
X96840Y-113560
X99380Y-113560
X106600Y-113510
X109140Y-113510
X111680Y-113510
X118740Y-113460
X121280Y-113460
X123820Y-113460
X134320Y-89310
X134320Y-103810
X136820Y-89310
X139320Y-89310
X139320Y-103810
T6
X65680Y-142200
X68220Y-142200
X74060Y-87940
X74060Y-90480
X74060Y-93020
X74060Y-95560
X74060Y-98100
X74060Y-100640
X74060Y-103180
X74060Y-105720
X88820Y-124000
X88820Y-126540
X88820Y-129080
X88820Y-131620
X97820Y-124000
X97820Y-126540
X97820Y-129080
X97820Y-131620
X106810Y-124000
X106810Y-126540
X106810Y-129080
X106810Y-131620
X115820Y-123980
X115820Y-126520
X115820Y-129060
X115820Y-131600
X141740Y-123590
X141740Y-126130
T7
X86600Y-137020
X86600Y-143520
X91100Y-137020
X91100Y-143520
X95590Y-137020
X95590Y-143520
X100090Y-137020
X100090Y-143520
X104580Y-137020
X104580Y-143520
X109080Y-137020
X109080Y-143520
X113610Y-137020
X113610Y-143520
X118110Y-137020
X118110Y-143520
T8
X57144Y-136120
X68320Y-136120
X124775Y-131300
X124775Y-139100
X124835Y-123610
X135951Y-131300
X135951Y-139100
X136011Y-123610
T9
X131220Y-96810
X142420Y-96810
T10
X64030Y-84610
X79480Y-132640
X131560Y-83290
T5
X136400Y-113960G85X136400Y-111960
G05
X140400Y-108260G85X138400Y-108260
G05
X142400Y-113960G85X142400Y-111960
G05
T0
M30
