G04 #@! TF.FileFunction,Legend,Bot*
%FSLAX46Y46*%
G04 Gerber Fmt 4.6, Leading zero omitted, Abs format (unit mm)*
G04 Created by KiCad (PCBNEW 4.0.7) date 05/21/18 20:26:36*
%MOMM*%
%LPD*%
G01*
G04 APERTURE LIST*
%ADD10C,0.100000*%
%ADD11C,0.300000*%
%ADD12C,0.120000*%
%ADD13C,0.150000*%
G04 APERTURE END LIST*
D10*
D11*
X114302856Y-80498571D02*
X114302856Y-78998571D01*
X113731428Y-78998571D01*
X113588570Y-79070000D01*
X113517142Y-79141429D01*
X113445713Y-79284286D01*
X113445713Y-79498571D01*
X113517142Y-79641429D01*
X113588570Y-79712857D01*
X113731428Y-79784286D01*
X114302856Y-79784286D01*
X112588570Y-80498571D02*
X112731428Y-80427143D01*
X112802856Y-80284286D01*
X112802856Y-78998571D01*
X111374285Y-80498571D02*
X111374285Y-79712857D01*
X111445714Y-79570000D01*
X111588571Y-79498571D01*
X111874285Y-79498571D01*
X112017142Y-79570000D01*
X111374285Y-80427143D02*
X111517142Y-80498571D01*
X111874285Y-80498571D01*
X112017142Y-80427143D01*
X112088571Y-80284286D01*
X112088571Y-80141429D01*
X112017142Y-79998571D01*
X111874285Y-79927143D01*
X111517142Y-79927143D01*
X111374285Y-79855714D01*
X110659999Y-79498571D02*
X110659999Y-80498571D01*
X110659999Y-79641429D02*
X110588571Y-79570000D01*
X110445713Y-79498571D01*
X110231428Y-79498571D01*
X110088571Y-79570000D01*
X110017142Y-79712857D01*
X110017142Y-80498571D01*
X109517142Y-79498571D02*
X108945713Y-79498571D01*
X109302856Y-78998571D02*
X109302856Y-80284286D01*
X109231428Y-80427143D01*
X109088570Y-80498571D01*
X108945713Y-80498571D01*
X107445713Y-78998571D02*
X107088570Y-80498571D01*
X106802856Y-79427143D01*
X106517142Y-80498571D01*
X106159999Y-78998571D01*
X104945713Y-80498571D02*
X104945713Y-79712857D01*
X105017142Y-79570000D01*
X105159999Y-79498571D01*
X105445713Y-79498571D01*
X105588570Y-79570000D01*
X104945713Y-80427143D02*
X105088570Y-80498571D01*
X105445713Y-80498571D01*
X105588570Y-80427143D01*
X105659999Y-80284286D01*
X105659999Y-80141429D01*
X105588570Y-79998571D01*
X105445713Y-79927143D01*
X105088570Y-79927143D01*
X104945713Y-79855714D01*
X104445713Y-79498571D02*
X103874284Y-79498571D01*
X104231427Y-78998571D02*
X104231427Y-80284286D01*
X104159999Y-80427143D01*
X104017141Y-80498571D01*
X103874284Y-80498571D01*
X102802856Y-80427143D02*
X102945713Y-80498571D01*
X103231427Y-80498571D01*
X103374284Y-80427143D01*
X103445713Y-80284286D01*
X103445713Y-79712857D01*
X103374284Y-79570000D01*
X103231427Y-79498571D01*
X102945713Y-79498571D01*
X102802856Y-79570000D01*
X102731427Y-79712857D01*
X102731427Y-79855714D01*
X103445713Y-79998571D01*
X102088570Y-80498571D02*
X102088570Y-79498571D01*
X102088570Y-79784286D02*
X102017142Y-79641429D01*
X101945713Y-79570000D01*
X101802856Y-79498571D01*
X101659999Y-79498571D01*
X101159999Y-80498571D02*
X101159999Y-79498571D01*
X101159999Y-78998571D02*
X101231428Y-79070000D01*
X101159999Y-79141429D01*
X101088571Y-79070000D01*
X101159999Y-78998571D01*
X101159999Y-79141429D01*
X100445713Y-79498571D02*
X100445713Y-80498571D01*
X100445713Y-79641429D02*
X100374285Y-79570000D01*
X100231427Y-79498571D01*
X100017142Y-79498571D01*
X99874285Y-79570000D01*
X99802856Y-79712857D01*
X99802856Y-80498571D01*
X98445713Y-79498571D02*
X98445713Y-80712857D01*
X98517142Y-80855714D01*
X98588570Y-80927143D01*
X98731427Y-80998571D01*
X98945713Y-80998571D01*
X99088570Y-80927143D01*
X98445713Y-80427143D02*
X98588570Y-80498571D01*
X98874284Y-80498571D01*
X99017142Y-80427143D01*
X99088570Y-80355714D01*
X99159999Y-80212857D01*
X99159999Y-79784286D01*
X99088570Y-79641429D01*
X99017142Y-79570000D01*
X98874284Y-79498571D01*
X98588570Y-79498571D01*
X98445713Y-79570000D01*
X96659999Y-80427143D02*
X96445713Y-80498571D01*
X96088570Y-80498571D01*
X95945713Y-80427143D01*
X95874284Y-80355714D01*
X95802856Y-80212857D01*
X95802856Y-80070000D01*
X95874284Y-79927143D01*
X95945713Y-79855714D01*
X96088570Y-79784286D01*
X96374284Y-79712857D01*
X96517142Y-79641429D01*
X96588570Y-79570000D01*
X96659999Y-79427143D01*
X96659999Y-79284286D01*
X96588570Y-79141429D01*
X96517142Y-79070000D01*
X96374284Y-78998571D01*
X96017142Y-78998571D01*
X95802856Y-79070000D01*
X95302856Y-79498571D02*
X94945713Y-80498571D01*
X94588571Y-79498571D02*
X94945713Y-80498571D01*
X95088571Y-80855714D01*
X95159999Y-80927143D01*
X95302856Y-80998571D01*
X94088571Y-80427143D02*
X93945714Y-80498571D01*
X93659999Y-80498571D01*
X93517142Y-80427143D01*
X93445714Y-80284286D01*
X93445714Y-80212857D01*
X93517142Y-80070000D01*
X93659999Y-79998571D01*
X93874285Y-79998571D01*
X94017142Y-79927143D01*
X94088571Y-79784286D01*
X94088571Y-79712857D01*
X94017142Y-79570000D01*
X93874285Y-79498571D01*
X93659999Y-79498571D01*
X93517142Y-79570000D01*
X93017142Y-79498571D02*
X92445713Y-79498571D01*
X92802856Y-78998571D02*
X92802856Y-80284286D01*
X92731428Y-80427143D01*
X92588570Y-80498571D01*
X92445713Y-80498571D01*
X91374285Y-80427143D02*
X91517142Y-80498571D01*
X91802856Y-80498571D01*
X91945713Y-80427143D01*
X92017142Y-80284286D01*
X92017142Y-79712857D01*
X91945713Y-79570000D01*
X91802856Y-79498571D01*
X91517142Y-79498571D01*
X91374285Y-79570000D01*
X91302856Y-79712857D01*
X91302856Y-79855714D01*
X92017142Y-79998571D01*
X90659999Y-80498571D02*
X90659999Y-79498571D01*
X90659999Y-79641429D02*
X90588571Y-79570000D01*
X90445713Y-79498571D01*
X90231428Y-79498571D01*
X90088571Y-79570000D01*
X90017142Y-79712857D01*
X90017142Y-80498571D01*
X90017142Y-79712857D02*
X89945713Y-79570000D01*
X89802856Y-79498571D01*
X89588571Y-79498571D01*
X89445713Y-79570000D01*
X89374285Y-79712857D01*
X89374285Y-80498571D01*
X87659999Y-79498571D02*
X87302856Y-80498571D01*
X86945714Y-79498571D01*
X85588571Y-80498571D02*
X86445714Y-80498571D01*
X86017142Y-80498571D02*
X86017142Y-78998571D01*
X86159999Y-79212857D01*
X86302857Y-79355714D01*
X86445714Y-79427143D01*
X84945714Y-80355714D02*
X84874286Y-80427143D01*
X84945714Y-80498571D01*
X85017143Y-80427143D01*
X84945714Y-80355714D01*
X84945714Y-80498571D01*
X83945714Y-78998571D02*
X83802857Y-78998571D01*
X83660000Y-79070000D01*
X83588571Y-79141429D01*
X83517142Y-79284286D01*
X83445714Y-79570000D01*
X83445714Y-79927143D01*
X83517142Y-80212857D01*
X83588571Y-80355714D01*
X83660000Y-80427143D01*
X83802857Y-80498571D01*
X83945714Y-80498571D01*
X84088571Y-80427143D01*
X84160000Y-80355714D01*
X84231428Y-80212857D01*
X84302857Y-79927143D01*
X84302857Y-79570000D01*
X84231428Y-79284286D01*
X84160000Y-79141429D01*
X84088571Y-79070000D01*
X83945714Y-78998571D01*
D12*
X89610000Y-110910000D02*
X79370000Y-110910000D01*
X89610000Y-115551000D02*
X79370000Y-115551000D01*
X89610000Y-110910000D02*
X89610000Y-115551000D01*
X79370000Y-110910000D02*
X79370000Y-115551000D01*
X89610000Y-112420000D02*
X79370000Y-112420000D01*
X86340000Y-110910000D02*
X86340000Y-112420000D01*
X82639000Y-110910000D02*
X82639000Y-112420000D01*
X101960000Y-110940000D02*
X91720000Y-110940000D01*
X101960000Y-115581000D02*
X91720000Y-115581000D01*
X101960000Y-110940000D02*
X101960000Y-115581000D01*
X91720000Y-110940000D02*
X91720000Y-115581000D01*
X101960000Y-112450000D02*
X91720000Y-112450000D01*
X98690000Y-110940000D02*
X98690000Y-112450000D01*
X94989000Y-110940000D02*
X94989000Y-112450000D01*
X114260000Y-110890000D02*
X104020000Y-110890000D01*
X114260000Y-115531000D02*
X104020000Y-115531000D01*
X114260000Y-110890000D02*
X114260000Y-115531000D01*
X104020000Y-110890000D02*
X104020000Y-115531000D01*
X114260000Y-112400000D02*
X104020000Y-112400000D01*
X110990000Y-110890000D02*
X110990000Y-112400000D01*
X107289000Y-110890000D02*
X107289000Y-112400000D01*
X126400000Y-110840000D02*
X116160000Y-110840000D01*
X126400000Y-115481000D02*
X116160000Y-115481000D01*
X126400000Y-110840000D02*
X126400000Y-115481000D01*
X116160000Y-110840000D02*
X116160000Y-115481000D01*
X126400000Y-112350000D02*
X116160000Y-112350000D01*
X123130000Y-110840000D02*
X123130000Y-112350000D01*
X119429000Y-110840000D02*
X119429000Y-112350000D01*
D13*
X84585238Y-110457619D02*
X84680476Y-110410000D01*
X84775714Y-110314762D01*
X84918571Y-110171905D01*
X85013810Y-110124286D01*
X85109048Y-110124286D01*
X85061429Y-110362381D02*
X85156667Y-110314762D01*
X85251905Y-110219524D01*
X85299524Y-110029048D01*
X85299524Y-109695714D01*
X85251905Y-109505238D01*
X85156667Y-109410000D01*
X85061429Y-109362381D01*
X84870952Y-109362381D01*
X84775714Y-109410000D01*
X84680476Y-109505238D01*
X84632857Y-109695714D01*
X84632857Y-110029048D01*
X84680476Y-110219524D01*
X84775714Y-110314762D01*
X84870952Y-110362381D01*
X85061429Y-110362381D01*
X83680476Y-110362381D02*
X84251905Y-110362381D01*
X83966191Y-110362381D02*
X83966191Y-109362381D01*
X84061429Y-109505238D01*
X84156667Y-109600476D01*
X84251905Y-109648095D01*
X96935238Y-110487619D02*
X97030476Y-110440000D01*
X97125714Y-110344762D01*
X97268571Y-110201905D01*
X97363810Y-110154286D01*
X97459048Y-110154286D01*
X97411429Y-110392381D02*
X97506667Y-110344762D01*
X97601905Y-110249524D01*
X97649524Y-110059048D01*
X97649524Y-109725714D01*
X97601905Y-109535238D01*
X97506667Y-109440000D01*
X97411429Y-109392381D01*
X97220952Y-109392381D01*
X97125714Y-109440000D01*
X97030476Y-109535238D01*
X96982857Y-109725714D01*
X96982857Y-110059048D01*
X97030476Y-110249524D01*
X97125714Y-110344762D01*
X97220952Y-110392381D01*
X97411429Y-110392381D01*
X96601905Y-109487619D02*
X96554286Y-109440000D01*
X96459048Y-109392381D01*
X96220952Y-109392381D01*
X96125714Y-109440000D01*
X96078095Y-109487619D01*
X96030476Y-109582857D01*
X96030476Y-109678095D01*
X96078095Y-109820952D01*
X96649524Y-110392381D01*
X96030476Y-110392381D01*
X109235238Y-110437619D02*
X109330476Y-110390000D01*
X109425714Y-110294762D01*
X109568571Y-110151905D01*
X109663810Y-110104286D01*
X109759048Y-110104286D01*
X109711429Y-110342381D02*
X109806667Y-110294762D01*
X109901905Y-110199524D01*
X109949524Y-110009048D01*
X109949524Y-109675714D01*
X109901905Y-109485238D01*
X109806667Y-109390000D01*
X109711429Y-109342381D01*
X109520952Y-109342381D01*
X109425714Y-109390000D01*
X109330476Y-109485238D01*
X109282857Y-109675714D01*
X109282857Y-110009048D01*
X109330476Y-110199524D01*
X109425714Y-110294762D01*
X109520952Y-110342381D01*
X109711429Y-110342381D01*
X108949524Y-109342381D02*
X108330476Y-109342381D01*
X108663810Y-109723333D01*
X108520952Y-109723333D01*
X108425714Y-109770952D01*
X108378095Y-109818571D01*
X108330476Y-109913810D01*
X108330476Y-110151905D01*
X108378095Y-110247143D01*
X108425714Y-110294762D01*
X108520952Y-110342381D01*
X108806667Y-110342381D01*
X108901905Y-110294762D01*
X108949524Y-110247143D01*
X121375238Y-110387619D02*
X121470476Y-110340000D01*
X121565714Y-110244762D01*
X121708571Y-110101905D01*
X121803810Y-110054286D01*
X121899048Y-110054286D01*
X121851429Y-110292381D02*
X121946667Y-110244762D01*
X122041905Y-110149524D01*
X122089524Y-109959048D01*
X122089524Y-109625714D01*
X122041905Y-109435238D01*
X121946667Y-109340000D01*
X121851429Y-109292381D01*
X121660952Y-109292381D01*
X121565714Y-109340000D01*
X121470476Y-109435238D01*
X121422857Y-109625714D01*
X121422857Y-109959048D01*
X121470476Y-110149524D01*
X121565714Y-110244762D01*
X121660952Y-110292381D01*
X121851429Y-110292381D01*
X120565714Y-109625714D02*
X120565714Y-110292381D01*
X120803810Y-109244762D02*
X121041905Y-109959048D01*
X120422857Y-109959048D01*
M02*
