M48
METRIC,TZ
T1C0.400
T2C0.701
T3C0.800
T4C0.813
T5C1.000
T6C1.016
T7C1.100
T8C1.501
T9C2.200
T10C3.200
%
G90
G05
T1
X76680Y-90900
X79018Y-89728
X82090Y-86810
X84350Y-83325
X86860Y-83330
X87110Y-86940
T2
X84850Y-124070
X84850Y-134230
X93950Y-123940
X93950Y-134100
X103060Y-124050
X103060Y-134210
X112120Y-124110
X112120Y-134270
T3
X60680Y-111540
X61140Y-123400
X67250Y-132580
X72960Y-120780
X73040Y-128280
X75460Y-120780
X75540Y-128280
X78150Y-121490
X78350Y-82050
X96430Y-83580
X115500Y-83900
X124060Y-83820
X127810Y-118730
T4
X53210Y-90420
X53210Y-92960
X53210Y-95500
X53210Y-98040
X53210Y-100580
X53210Y-103120
X53210Y-105660
X53210Y-108200
X53210Y-110740
X53210Y-113280
X53210Y-115820
X53210Y-118360
X53210Y-120900
X53210Y-123440
X53210Y-125980
X68450Y-90420
X68450Y-92960
X68450Y-95500
X68450Y-98040
X68450Y-100580
X68450Y-103120
X68450Y-105660
X68450Y-108200
X68450Y-110740
X68450Y-113280
X68450Y-115820
X68450Y-118360
X68450Y-120900
X68450Y-123440
X68450Y-125980
T5
X58260Y-113520
X60800Y-113520
X63340Y-113520
X81950Y-113530
X84490Y-113530
X87030Y-113530
X94300Y-113560
X96840Y-113560
X99380Y-113560
X106600Y-113510
X109140Y-113510
X111680Y-113510
X118740Y-113460
X121280Y-113460
X123820Y-113460
X134320Y-89310
X134320Y-103810
X136820Y-89310
X139320Y-89310
X139320Y-103810
T6
X65730Y-142220
X68270Y-142220
X74230Y-89370
X74230Y-91910
X74230Y-94450
X74230Y-96990
X74230Y-99530
X74230Y-102070
X74230Y-104610
X74230Y-107150
X88820Y-125520
X88820Y-128060
X88820Y-130600
X88820Y-133140
X97820Y-125520
X97820Y-128060
X97820Y-130600
X97820Y-133140
X106810Y-125520
X106810Y-128060
X106810Y-130600
X106810Y-133140
X115820Y-125500
X115820Y-128040
X115820Y-130580
X115820Y-133120
X141640Y-123630
X141640Y-126170
T7
X86600Y-137020
X86600Y-143520
X91100Y-137020
X91100Y-143520
X95590Y-137020
X95590Y-143520
X100090Y-137020
X100090Y-143520
X104580Y-137020
X104580Y-143520
X109080Y-137020
X109080Y-143520
X113610Y-137020
X113610Y-143520
X118110Y-137020
X118110Y-143520
T8
X57144Y-136120
X68320Y-136120
X124775Y-131300
X124775Y-139100
X124835Y-123610
X135951Y-131300
X135951Y-139100
X136011Y-123610
T9
X131220Y-96810
X142420Y-96810
T10
X64030Y-84610
X79480Y-132640
X119870Y-90720
X131560Y-83290
T5
X136400Y-113960G85X136400Y-111960
G05
X140400Y-108260G85X138400Y-108260
G05
X142400Y-113960G85X142400Y-111960
G05
T0
M30
