G04 #@! TF.FileFunction,Legend,Top*
%FSLAX46Y46*%
G04 Gerber Fmt 4.6, Leading zero omitted, Abs format (unit mm)*
G04 Created by KiCad (PCBNEW 4.0.7) date 07/01/18 12:19:37*
%MOMM*%
%LPD*%
G01*
G04 APERTURE LIST*
%ADD10C,0.100000*%
%ADD11C,0.150000*%
%ADD12C,0.120000*%
%ADD13C,0.381000*%
%ADD14C,0.203200*%
%ADD15C,0.304800*%
%ADD16C,0.152400*%
G04 APERTURE END LIST*
D10*
D11*
X74365000Y-125781000D02*
X74365000Y-130779000D01*
X74505000Y-125789000D02*
X74505000Y-130771000D01*
X74645000Y-125805000D02*
X74645000Y-128185000D01*
X74645000Y-128375000D02*
X74645000Y-130755000D01*
X74785000Y-125829000D02*
X74785000Y-127790000D01*
X74785000Y-128770000D02*
X74785000Y-130731000D01*
X74925000Y-125862000D02*
X74925000Y-127623000D01*
X74925000Y-128937000D02*
X74925000Y-130698000D01*
X75065000Y-125903000D02*
X75065000Y-127516000D01*
X75065000Y-129044000D02*
X75065000Y-130657000D01*
X75205000Y-125953000D02*
X75205000Y-127445000D01*
X75205000Y-129115000D02*
X75205000Y-130607000D01*
X75345000Y-126014000D02*
X75345000Y-127401000D01*
X75345000Y-129159000D02*
X75345000Y-130546000D01*
X75485000Y-126084000D02*
X75485000Y-127382000D01*
X75485000Y-129178000D02*
X75485000Y-130476000D01*
X75625000Y-126166000D02*
X75625000Y-127384000D01*
X75625000Y-129176000D02*
X75625000Y-130394000D01*
X75765000Y-126261000D02*
X75765000Y-127409000D01*
X75765000Y-129151000D02*
X75765000Y-130299000D01*
X75905000Y-126372000D02*
X75905000Y-127457000D01*
X75905000Y-129103000D02*
X75905000Y-130188000D01*
X76045000Y-126500000D02*
X76045000Y-127535000D01*
X76045000Y-129025000D02*
X76045000Y-130060000D01*
X76185000Y-126649000D02*
X76185000Y-127652000D01*
X76185000Y-128908000D02*
X76185000Y-129911000D01*
X76325000Y-126828000D02*
X76325000Y-127840000D01*
X76325000Y-128720000D02*
X76325000Y-129732000D01*
X76465000Y-127047000D02*
X76465000Y-129513000D01*
X76605000Y-127336000D02*
X76605000Y-129224000D01*
X76745000Y-127808000D02*
X76745000Y-128752000D01*
X76440000Y-128280000D02*
G75*
G03X76440000Y-128280000I-900000J0D01*
G01*
X76827500Y-128280000D02*
G75*
G03X76827500Y-128280000I-2537500J0D01*
G01*
X122156000Y-90720000D02*
G75*
G03X122156000Y-90720000I-2286000J0D01*
G01*
X133846000Y-83290000D02*
G75*
G03X133846000Y-83290000I-2286000J0D01*
G01*
X81766000Y-132640000D02*
G75*
G03X81766000Y-132640000I-2286000J0D01*
G01*
D12*
X124820000Y-115740000D02*
X126820000Y-115740000D01*
X126820000Y-117880000D02*
X124820000Y-117880000D01*
D13*
X67180000Y-86610000D02*
X67180000Y-129790000D01*
X67180000Y-129790000D02*
X54480000Y-129790000D01*
X54480000Y-129790000D02*
X54480000Y-86610000D01*
X54480000Y-86610000D02*
X67180000Y-86610000D01*
X59560000Y-86610000D02*
X59560000Y-87880000D01*
X59560000Y-87880000D02*
X62100000Y-87880000D01*
X62100000Y-87880000D02*
X62100000Y-86610000D01*
D11*
X72960000Y-105880000D02*
X72960000Y-88100000D01*
X72960000Y-88100000D02*
X75500000Y-88100000D01*
X75500000Y-88100000D02*
X75500000Y-105880000D01*
X72680000Y-108700000D02*
X72680000Y-107150000D01*
X72960000Y-105880000D02*
X75500000Y-105880000D01*
X75780000Y-107150000D02*
X75780000Y-108700000D01*
X75780000Y-108700000D02*
X72680000Y-108700000D01*
D12*
X123100000Y-81140000D02*
X121100000Y-81140000D01*
X121100000Y-83180000D02*
X123100000Y-83180000D01*
X114450000Y-81140000D02*
X112450000Y-81140000D01*
X112450000Y-83180000D02*
X114450000Y-83180000D01*
D11*
X74285000Y-118281000D02*
X74285000Y-123279000D01*
X74425000Y-118289000D02*
X74425000Y-123271000D01*
X74565000Y-118305000D02*
X74565000Y-120685000D01*
X74565000Y-120875000D02*
X74565000Y-123255000D01*
X74705000Y-118329000D02*
X74705000Y-120290000D01*
X74705000Y-121270000D02*
X74705000Y-123231000D01*
X74845000Y-118362000D02*
X74845000Y-120123000D01*
X74845000Y-121437000D02*
X74845000Y-123198000D01*
X74985000Y-118403000D02*
X74985000Y-120016000D01*
X74985000Y-121544000D02*
X74985000Y-123157000D01*
X75125000Y-118453000D02*
X75125000Y-119945000D01*
X75125000Y-121615000D02*
X75125000Y-123107000D01*
X75265000Y-118514000D02*
X75265000Y-119901000D01*
X75265000Y-121659000D02*
X75265000Y-123046000D01*
X75405000Y-118584000D02*
X75405000Y-119882000D01*
X75405000Y-121678000D02*
X75405000Y-122976000D01*
X75545000Y-118666000D02*
X75545000Y-119884000D01*
X75545000Y-121676000D02*
X75545000Y-122894000D01*
X75685000Y-118761000D02*
X75685000Y-119909000D01*
X75685000Y-121651000D02*
X75685000Y-122799000D01*
X75825000Y-118872000D02*
X75825000Y-119957000D01*
X75825000Y-121603000D02*
X75825000Y-122688000D01*
X75965000Y-119000000D02*
X75965000Y-120035000D01*
X75965000Y-121525000D02*
X75965000Y-122560000D01*
X76105000Y-119149000D02*
X76105000Y-120152000D01*
X76105000Y-121408000D02*
X76105000Y-122411000D01*
X76245000Y-119328000D02*
X76245000Y-120340000D01*
X76245000Y-121220000D02*
X76245000Y-122232000D01*
X76385000Y-119547000D02*
X76385000Y-122013000D01*
X76525000Y-119836000D02*
X76525000Y-121724000D01*
X76665000Y-120308000D02*
X76665000Y-121252000D01*
X76360000Y-120780000D02*
G75*
G03X76360000Y-120780000I-900000J0D01*
G01*
X76747500Y-120780000D02*
G75*
G03X76747500Y-120780000I-2537500J0D01*
G01*
D12*
X93460000Y-82970000D02*
X95460000Y-82970000D01*
X95460000Y-80930000D02*
X93460000Y-80930000D01*
D11*
X61716000Y-136120000D02*
X59176000Y-136120000D01*
X63748000Y-136120000D02*
X66288000Y-136120000D01*
X61716000Y-136120000D02*
X63748000Y-134596000D01*
X63748000Y-134596000D02*
X63748000Y-137644000D01*
X63748000Y-137644000D02*
X61716000Y-136120000D01*
X61716000Y-134596000D02*
X61716000Y-137644000D01*
X70860000Y-138914000D02*
X70860000Y-133326000D01*
X70860000Y-133326000D02*
X54604000Y-133326000D01*
X54604000Y-133326000D02*
X54604000Y-138914000D01*
X54604000Y-138914000D02*
X70860000Y-138914000D01*
X129346920Y-139100000D02*
X126806920Y-139100000D01*
X131378920Y-139100000D02*
X133918920Y-139100000D01*
X129346920Y-139100000D02*
X131378920Y-137576000D01*
X131378920Y-137576000D02*
X131378920Y-140624000D01*
X131378920Y-140624000D02*
X129346920Y-139100000D01*
X129346920Y-137576000D02*
X129346920Y-140624000D01*
X138490920Y-141894000D02*
X138490920Y-136306000D01*
X138490920Y-136306000D02*
X122234920Y-136306000D01*
X122234920Y-136306000D02*
X122234920Y-141894000D01*
X122234920Y-141894000D02*
X138490920Y-141894000D01*
X129346920Y-131300000D02*
X126806920Y-131300000D01*
X131378920Y-131300000D02*
X133918920Y-131300000D01*
X129346920Y-131300000D02*
X131378920Y-129776000D01*
X131378920Y-129776000D02*
X131378920Y-132824000D01*
X131378920Y-132824000D02*
X129346920Y-131300000D01*
X129346920Y-129776000D02*
X129346920Y-132824000D01*
X138490920Y-134094000D02*
X138490920Y-128506000D01*
X138490920Y-128506000D02*
X122234920Y-128506000D01*
X122234920Y-128506000D02*
X122234920Y-134094000D01*
X122234920Y-134094000D02*
X138490920Y-134094000D01*
X129406920Y-123610000D02*
X126866920Y-123610000D01*
X131438920Y-123610000D02*
X133978920Y-123610000D01*
X129406920Y-123610000D02*
X131438920Y-122086000D01*
X131438920Y-122086000D02*
X131438920Y-125134000D01*
X131438920Y-125134000D02*
X129406920Y-123610000D01*
X129406920Y-122086000D02*
X129406920Y-125134000D01*
X138550920Y-126404000D02*
X138550920Y-120816000D01*
X138550920Y-120816000D02*
X122294920Y-120816000D01*
X122294920Y-120816000D02*
X122294920Y-126404000D01*
X122294920Y-126404000D02*
X138550920Y-126404000D01*
X84850000Y-131436000D02*
X84850000Y-132833000D01*
X84850000Y-126991000D02*
X84850000Y-125467000D01*
X85612000Y-127372000D02*
X84088000Y-127372000D01*
X85612000Y-127118000D02*
X84088000Y-127118000D01*
X84850000Y-126864000D02*
X84088000Y-126864000D01*
X84088000Y-126864000D02*
X84088000Y-131436000D01*
X84088000Y-131436000D02*
X85612000Y-131436000D01*
X85612000Y-131436000D02*
X85612000Y-126864000D01*
X85612000Y-126864000D02*
X84850000Y-126864000D01*
X93950000Y-131306000D02*
X93950000Y-132703000D01*
X93950000Y-126861000D02*
X93950000Y-125337000D01*
X94712000Y-127242000D02*
X93188000Y-127242000D01*
X94712000Y-126988000D02*
X93188000Y-126988000D01*
X93950000Y-126734000D02*
X93188000Y-126734000D01*
X93188000Y-126734000D02*
X93188000Y-131306000D01*
X93188000Y-131306000D02*
X94712000Y-131306000D01*
X94712000Y-131306000D02*
X94712000Y-126734000D01*
X94712000Y-126734000D02*
X93950000Y-126734000D01*
X103060000Y-131416000D02*
X103060000Y-132813000D01*
X103060000Y-126971000D02*
X103060000Y-125447000D01*
X103822000Y-127352000D02*
X102298000Y-127352000D01*
X103822000Y-127098000D02*
X102298000Y-127098000D01*
X103060000Y-126844000D02*
X102298000Y-126844000D01*
X102298000Y-126844000D02*
X102298000Y-131416000D01*
X102298000Y-131416000D02*
X103822000Y-131416000D01*
X103822000Y-131416000D02*
X103822000Y-126844000D01*
X103822000Y-126844000D02*
X103060000Y-126844000D01*
X112120000Y-131476000D02*
X112120000Y-132873000D01*
X112120000Y-127031000D02*
X112120000Y-125507000D01*
X112882000Y-127412000D02*
X111358000Y-127412000D01*
X112882000Y-127158000D02*
X111358000Y-127158000D01*
X112120000Y-126904000D02*
X111358000Y-126904000D01*
X111358000Y-126904000D02*
X111358000Y-131476000D01*
X111358000Y-131476000D02*
X112882000Y-131476000D01*
X112882000Y-131476000D02*
X112882000Y-126904000D01*
X112882000Y-126904000D02*
X112120000Y-126904000D01*
D12*
X141400000Y-108360000D02*
X150200000Y-108360000D01*
X150200000Y-108360000D02*
X150200000Y-117560000D01*
X135500000Y-111060000D02*
X135500000Y-108360000D01*
X135500000Y-108360000D02*
X137400000Y-108360000D01*
X150200000Y-117560000D02*
X135500000Y-117560000D01*
X135500000Y-117560000D02*
X135500000Y-114960000D01*
D11*
X87550000Y-126790000D02*
X87550000Y-134410000D01*
X90090000Y-126790000D02*
X90090000Y-134410000D01*
X90370000Y-123970000D02*
X90370000Y-125520000D01*
X87550000Y-134410000D02*
X90090000Y-134410000D01*
X90090000Y-126790000D02*
X87550000Y-126790000D01*
X87270000Y-125520000D02*
X87270000Y-123970000D01*
X87270000Y-123970000D02*
X90370000Y-123970000D01*
X96550000Y-126790000D02*
X96550000Y-134410000D01*
X99090000Y-126790000D02*
X99090000Y-134410000D01*
X99370000Y-123970000D02*
X99370000Y-125520000D01*
X96550000Y-134410000D02*
X99090000Y-134410000D01*
X99090000Y-126790000D02*
X96550000Y-126790000D01*
X96270000Y-125520000D02*
X96270000Y-123970000D01*
X96270000Y-123970000D02*
X99370000Y-123970000D01*
X105540000Y-126790000D02*
X105540000Y-134410000D01*
X108080000Y-126790000D02*
X108080000Y-134410000D01*
X108360000Y-123970000D02*
X108360000Y-125520000D01*
X105540000Y-134410000D02*
X108080000Y-134410000D01*
X108080000Y-126790000D02*
X105540000Y-126790000D01*
X105260000Y-125520000D02*
X105260000Y-123970000D01*
X105260000Y-123970000D02*
X108360000Y-123970000D01*
X114550000Y-126770000D02*
X114550000Y-134390000D01*
X117090000Y-126770000D02*
X117090000Y-134390000D01*
X117370000Y-123950000D02*
X117370000Y-125500000D01*
X114550000Y-134390000D02*
X117090000Y-134390000D01*
X117090000Y-126770000D02*
X114550000Y-126770000D01*
X114270000Y-125500000D02*
X114270000Y-123950000D01*
X114270000Y-123950000D02*
X117370000Y-123950000D01*
D12*
X89420000Y-82740000D02*
X89020000Y-82740000D01*
X89020000Y-82740000D02*
X89020000Y-81340000D01*
X89420000Y-82740000D02*
X89420000Y-87540000D01*
X78620000Y-82740000D02*
X78620000Y-87540000D01*
X60390000Y-100830000D02*
X62390000Y-100830000D01*
X62390000Y-102970000D02*
X60390000Y-102970000D01*
X60390000Y-97050000D02*
X62390000Y-97050000D01*
X62390000Y-99190000D02*
X60390000Y-99190000D01*
X60390000Y-93230000D02*
X62390000Y-93230000D01*
X62390000Y-95370000D02*
X60390000Y-95370000D01*
X60390000Y-89290000D02*
X62390000Y-89290000D01*
X62390000Y-91430000D02*
X60390000Y-91430000D01*
X88070000Y-115530000D02*
X90070000Y-115530000D01*
X90070000Y-117670000D02*
X88070000Y-117670000D01*
X86050000Y-110510000D02*
X84050000Y-110510000D01*
X84050000Y-108370000D02*
X86050000Y-108370000D01*
X100360000Y-115630000D02*
X102360000Y-115630000D01*
X102360000Y-117770000D02*
X100360000Y-117770000D01*
X98360000Y-110570000D02*
X96360000Y-110570000D01*
X96360000Y-108430000D02*
X98360000Y-108430000D01*
X112700000Y-115630000D02*
X114700000Y-115630000D01*
X114700000Y-117770000D02*
X112700000Y-117770000D01*
X110700000Y-110590000D02*
X108700000Y-110590000D01*
X108700000Y-108450000D02*
X110700000Y-108450000D01*
X122830000Y-110520000D02*
X120830000Y-110520000D01*
X120830000Y-108380000D02*
X122830000Y-108380000D01*
D14*
X133820000Y-98310000D02*
X139820000Y-98310000D01*
X140320000Y-96810000D02*
G75*
G03X140320000Y-96810000I-3500000J0D01*
G01*
X130820000Y-90310000D02*
X142820000Y-90310000D01*
X142820000Y-90310000D02*
X142820000Y-103310000D01*
X142820000Y-103310000D02*
X130820000Y-103310000D01*
X130820000Y-103310000D02*
X130820000Y-90310000D01*
D12*
X92100000Y-142520000D02*
X92100000Y-138020000D01*
X88100000Y-143770000D02*
X89600000Y-143770000D01*
X85600000Y-138020000D02*
X85600000Y-142520000D01*
X89600000Y-136770000D02*
X88100000Y-136770000D01*
X101090000Y-142520000D02*
X101090000Y-138020000D01*
X97090000Y-143770000D02*
X98590000Y-143770000D01*
X94590000Y-138020000D02*
X94590000Y-142520000D01*
X98590000Y-136770000D02*
X97090000Y-136770000D01*
X110080000Y-142520000D02*
X110080000Y-138020000D01*
X106080000Y-143770000D02*
X107580000Y-143770000D01*
X103580000Y-138020000D02*
X103580000Y-142520000D01*
X107580000Y-136770000D02*
X106080000Y-136770000D01*
X119110000Y-142520000D02*
X119110000Y-138020000D01*
X115110000Y-143770000D02*
X116610000Y-143770000D01*
X112610000Y-138020000D02*
X112610000Y-142520000D01*
X116610000Y-136770000D02*
X115110000Y-136770000D01*
D11*
X66316000Y-84610000D02*
G75*
G03X66316000Y-84610000I-2286000J0D01*
G01*
D12*
X65900000Y-118620000D02*
X65900000Y-120620000D01*
X63760000Y-120620000D02*
X63760000Y-118620000D01*
X60150000Y-120570000D02*
X60150000Y-118570000D01*
X62290000Y-118570000D02*
X62290000Y-120570000D01*
D11*
X74123334Y-124837143D02*
X74075715Y-124884762D01*
X73932858Y-124932381D01*
X73837620Y-124932381D01*
X73694762Y-124884762D01*
X73599524Y-124789524D01*
X73551905Y-124694286D01*
X73504286Y-124503810D01*
X73504286Y-124360952D01*
X73551905Y-124170476D01*
X73599524Y-124075238D01*
X73694762Y-123980000D01*
X73837620Y-123932381D01*
X73932858Y-123932381D01*
X74075715Y-123980000D01*
X74123334Y-124027619D01*
X74980477Y-124265714D02*
X74980477Y-124932381D01*
X74742381Y-123884762D02*
X74504286Y-124599048D01*
X75123334Y-124599048D01*
X125287143Y-119172381D02*
X124953809Y-118696190D01*
X124715714Y-119172381D02*
X124715714Y-118172381D01*
X125096667Y-118172381D01*
X125191905Y-118220000D01*
X125239524Y-118267619D01*
X125287143Y-118362857D01*
X125287143Y-118505714D01*
X125239524Y-118600952D01*
X125191905Y-118648571D01*
X125096667Y-118696190D01*
X124715714Y-118696190D01*
X126239524Y-119172381D02*
X125668095Y-119172381D01*
X125953809Y-119172381D02*
X125953809Y-118172381D01*
X125858571Y-118315238D01*
X125763333Y-118410476D01*
X125668095Y-118458095D01*
X127191905Y-119172381D02*
X126620476Y-119172381D01*
X126906190Y-119172381D02*
X126906190Y-118172381D01*
X126810952Y-118315238D01*
X126715714Y-118410476D01*
X126620476Y-118458095D01*
D15*
X64556333Y-128654667D02*
X65995667Y-128654667D01*
X66165000Y-128570000D01*
X66249667Y-128485333D01*
X66334333Y-128316000D01*
X66334333Y-127977333D01*
X66249667Y-127808000D01*
X66165000Y-127723333D01*
X65995667Y-127638667D01*
X64556333Y-127638667D01*
X66334333Y-125860666D02*
X66334333Y-126876666D01*
X66334333Y-126368666D02*
X64556333Y-126368666D01*
X64810333Y-126538000D01*
X64979667Y-126707333D01*
X65064333Y-126876666D01*
X57114333Y-124973669D02*
X56183000Y-124973669D01*
X56013667Y-125058335D01*
X55929000Y-125227669D01*
X55929000Y-125566335D01*
X56013667Y-125735669D01*
X57029667Y-124973669D02*
X57114333Y-125143002D01*
X57114333Y-125566335D01*
X57029667Y-125735669D01*
X56860333Y-125820335D01*
X56691000Y-125820335D01*
X56521667Y-125735669D01*
X56437000Y-125566335D01*
X56437000Y-125143002D01*
X56352333Y-124973669D01*
X57114333Y-124127002D02*
X55929000Y-124127002D01*
X56267667Y-124127002D02*
X56098333Y-124042335D01*
X56013667Y-123957668D01*
X55929000Y-123788335D01*
X55929000Y-123619002D01*
X57114333Y-122264335D02*
X55336333Y-122264335D01*
X57029667Y-122264335D02*
X57114333Y-122433668D01*
X57114333Y-122772335D01*
X57029667Y-122941668D01*
X56945000Y-123026335D01*
X56775667Y-123111001D01*
X56267667Y-123111001D01*
X56098333Y-123026335D01*
X56013667Y-122941668D01*
X55929000Y-122772335D01*
X55929000Y-122433668D01*
X56013667Y-122264335D01*
X55929000Y-120655668D02*
X57114333Y-120655668D01*
X55929000Y-121417668D02*
X56860333Y-121417668D01*
X57029667Y-121333001D01*
X57114333Y-121163668D01*
X57114333Y-120909668D01*
X57029667Y-120740334D01*
X56945000Y-120655668D01*
X57114333Y-119809001D02*
X55929000Y-119809001D01*
X55336333Y-119809001D02*
X55421000Y-119893667D01*
X55505667Y-119809001D01*
X55421000Y-119724334D01*
X55336333Y-119809001D01*
X55505667Y-119809001D01*
X55929000Y-118962334D02*
X57114333Y-118962334D01*
X56098333Y-118962334D02*
X56013667Y-118877667D01*
X55929000Y-118708334D01*
X55929000Y-118454334D01*
X56013667Y-118285000D01*
X56183000Y-118200334D01*
X57114333Y-118200334D01*
X57114333Y-117099667D02*
X57029667Y-117269000D01*
X56945000Y-117353667D01*
X56775667Y-117438333D01*
X56267667Y-117438333D01*
X56098333Y-117353667D01*
X56013667Y-117269000D01*
X55929000Y-117099667D01*
X55929000Y-116845667D01*
X56013667Y-116676333D01*
X56098333Y-116591667D01*
X56267667Y-116507000D01*
X56775667Y-116507000D01*
X56945000Y-116591667D01*
X57029667Y-116676333D01*
X57114333Y-116845667D01*
X57114333Y-117099667D01*
X57283667Y-116168333D02*
X57283667Y-114813666D01*
X57114333Y-114390333D02*
X55929000Y-114390333D01*
X56098333Y-114390333D02*
X56013667Y-114305666D01*
X55929000Y-114136333D01*
X55929000Y-113882333D01*
X56013667Y-113712999D01*
X56183000Y-113628333D01*
X57114333Y-113628333D01*
X56183000Y-113628333D02*
X56013667Y-113543666D01*
X55929000Y-113374333D01*
X55929000Y-113120333D01*
X56013667Y-112950999D01*
X56183000Y-112866333D01*
X57114333Y-112866333D01*
X57114333Y-112019666D02*
X55929000Y-112019666D01*
X55336333Y-112019666D02*
X55421000Y-112104332D01*
X55505667Y-112019666D01*
X55421000Y-111934999D01*
X55336333Y-112019666D01*
X55505667Y-112019666D01*
X55929000Y-111172999D02*
X57114333Y-111172999D01*
X56098333Y-111172999D02*
X56013667Y-111088332D01*
X55929000Y-110918999D01*
X55929000Y-110664999D01*
X56013667Y-110495665D01*
X56183000Y-110410999D01*
X57114333Y-110410999D01*
X57114333Y-109564332D02*
X55929000Y-109564332D01*
X55336333Y-109564332D02*
X55421000Y-109648998D01*
X55505667Y-109564332D01*
X55421000Y-109479665D01*
X55336333Y-109564332D01*
X55505667Y-109564332D01*
D11*
X72508571Y-109382381D02*
X73080000Y-109382381D01*
X72794285Y-110382381D02*
X72794285Y-109382381D01*
X73746667Y-109858571D02*
X73413333Y-109858571D01*
X73413333Y-110382381D02*
X73413333Y-109382381D01*
X73889524Y-109382381D01*
X74127619Y-109382381D02*
X74699048Y-109382381D01*
X74413333Y-110382381D02*
X74413333Y-109382381D01*
X75556191Y-110382381D02*
X74984762Y-110382381D01*
X75270476Y-110382381D02*
X75270476Y-109382381D01*
X75175238Y-109525238D01*
X75080000Y-109620476D01*
X74984762Y-109668095D01*
X121933334Y-80767143D02*
X121885715Y-80814762D01*
X121742858Y-80862381D01*
X121647620Y-80862381D01*
X121504762Y-80814762D01*
X121409524Y-80719524D01*
X121361905Y-80624286D01*
X121314286Y-80433810D01*
X121314286Y-80290952D01*
X121361905Y-80100476D01*
X121409524Y-80005238D01*
X121504762Y-79910000D01*
X121647620Y-79862381D01*
X121742858Y-79862381D01*
X121885715Y-79910000D01*
X121933334Y-79957619D01*
X122885715Y-80862381D02*
X122314286Y-80862381D01*
X122600000Y-80862381D02*
X122600000Y-79862381D01*
X122504762Y-80005238D01*
X122409524Y-80100476D01*
X122314286Y-80148095D01*
X113283334Y-80767143D02*
X113235715Y-80814762D01*
X113092858Y-80862381D01*
X112997620Y-80862381D01*
X112854762Y-80814762D01*
X112759524Y-80719524D01*
X112711905Y-80624286D01*
X112664286Y-80433810D01*
X112664286Y-80290952D01*
X112711905Y-80100476D01*
X112759524Y-80005238D01*
X112854762Y-79910000D01*
X112997620Y-79862381D01*
X113092858Y-79862381D01*
X113235715Y-79910000D01*
X113283334Y-79957619D01*
X113664286Y-79957619D02*
X113711905Y-79910000D01*
X113807143Y-79862381D01*
X114045239Y-79862381D01*
X114140477Y-79910000D01*
X114188096Y-79957619D01*
X114235715Y-80052857D01*
X114235715Y-80148095D01*
X114188096Y-80290952D01*
X113616667Y-80862381D01*
X114235715Y-80862381D01*
X74043334Y-117337143D02*
X73995715Y-117384762D01*
X73852858Y-117432381D01*
X73757620Y-117432381D01*
X73614762Y-117384762D01*
X73519524Y-117289524D01*
X73471905Y-117194286D01*
X73424286Y-117003810D01*
X73424286Y-116860952D01*
X73471905Y-116670476D01*
X73519524Y-116575238D01*
X73614762Y-116480000D01*
X73757620Y-116432381D01*
X73852858Y-116432381D01*
X73995715Y-116480000D01*
X74043334Y-116527619D01*
X74376667Y-116432381D02*
X74995715Y-116432381D01*
X74662381Y-116813333D01*
X74805239Y-116813333D01*
X74900477Y-116860952D01*
X74948096Y-116908571D01*
X74995715Y-117003810D01*
X74995715Y-117241905D01*
X74948096Y-117337143D01*
X74900477Y-117384762D01*
X74805239Y-117432381D01*
X74519524Y-117432381D01*
X74424286Y-117384762D01*
X74376667Y-117337143D01*
X94293334Y-84057143D02*
X94245715Y-84104762D01*
X94102858Y-84152381D01*
X94007620Y-84152381D01*
X93864762Y-84104762D01*
X93769524Y-84009524D01*
X93721905Y-83914286D01*
X93674286Y-83723810D01*
X93674286Y-83580952D01*
X93721905Y-83390476D01*
X93769524Y-83295238D01*
X93864762Y-83200000D01*
X94007620Y-83152381D01*
X94102858Y-83152381D01*
X94245715Y-83200000D01*
X94293334Y-83247619D01*
X95198096Y-83152381D02*
X94721905Y-83152381D01*
X94674286Y-83628571D01*
X94721905Y-83580952D01*
X94817143Y-83533333D01*
X95055239Y-83533333D01*
X95150477Y-83580952D01*
X95198096Y-83628571D01*
X95245715Y-83723810D01*
X95245715Y-83961905D01*
X95198096Y-84057143D01*
X95150477Y-84104762D01*
X95055239Y-84152381D01*
X94817143Y-84152381D01*
X94721905Y-84104762D01*
X94674286Y-84057143D01*
X52611905Y-136572381D02*
X52611905Y-135572381D01*
X52850000Y-135572381D01*
X52992858Y-135620000D01*
X53088096Y-135715238D01*
X53135715Y-135810476D01*
X53183334Y-136000952D01*
X53183334Y-136143810D01*
X53135715Y-136334286D01*
X53088096Y-136429524D01*
X52992858Y-136524762D01*
X52850000Y-136572381D01*
X52611905Y-136572381D01*
X54135715Y-136572381D02*
X53564286Y-136572381D01*
X53850000Y-136572381D02*
X53850000Y-135572381D01*
X53754762Y-135715238D01*
X53659524Y-135810476D01*
X53564286Y-135858095D01*
X65033905Y-137810667D02*
X65510096Y-137810667D01*
X64938667Y-138096381D02*
X65272000Y-137096381D01*
X65605334Y-138096381D01*
X122241905Y-136072381D02*
X122241905Y-135072381D01*
X122480000Y-135072381D01*
X122622858Y-135120000D01*
X122718096Y-135215238D01*
X122765715Y-135310476D01*
X122813334Y-135500952D01*
X122813334Y-135643810D01*
X122765715Y-135834286D01*
X122718096Y-135929524D01*
X122622858Y-136024762D01*
X122480000Y-136072381D01*
X122241905Y-136072381D01*
X123194286Y-135167619D02*
X123241905Y-135120000D01*
X123337143Y-135072381D01*
X123575239Y-135072381D01*
X123670477Y-135120000D01*
X123718096Y-135167619D01*
X123765715Y-135262857D01*
X123765715Y-135358095D01*
X123718096Y-135500952D01*
X123146667Y-136072381D01*
X123765715Y-136072381D01*
X132664825Y-140790667D02*
X133141016Y-140790667D01*
X132569587Y-141076381D02*
X132902920Y-140076381D01*
X133236254Y-141076381D01*
X122236825Y-128242381D02*
X122236825Y-127242381D01*
X122474920Y-127242381D01*
X122617778Y-127290000D01*
X122713016Y-127385238D01*
X122760635Y-127480476D01*
X122808254Y-127670952D01*
X122808254Y-127813810D01*
X122760635Y-128004286D01*
X122713016Y-128099524D01*
X122617778Y-128194762D01*
X122474920Y-128242381D01*
X122236825Y-128242381D01*
X123141587Y-127242381D02*
X123760635Y-127242381D01*
X123427301Y-127623333D01*
X123570159Y-127623333D01*
X123665397Y-127670952D01*
X123713016Y-127718571D01*
X123760635Y-127813810D01*
X123760635Y-128051905D01*
X123713016Y-128147143D01*
X123665397Y-128194762D01*
X123570159Y-128242381D01*
X123284444Y-128242381D01*
X123189206Y-128194762D01*
X123141587Y-128147143D01*
X132664825Y-132990667D02*
X133141016Y-132990667D01*
X132569587Y-133276381D02*
X132902920Y-132276381D01*
X133236254Y-133276381D01*
X122312825Y-120542381D02*
X122312825Y-119542381D01*
X122550920Y-119542381D01*
X122693778Y-119590000D01*
X122789016Y-119685238D01*
X122836635Y-119780476D01*
X122884254Y-119970952D01*
X122884254Y-120113810D01*
X122836635Y-120304286D01*
X122789016Y-120399524D01*
X122693778Y-120494762D01*
X122550920Y-120542381D01*
X122312825Y-120542381D01*
X123741397Y-119875714D02*
X123741397Y-120542381D01*
X123503301Y-119494762D02*
X123265206Y-120209048D01*
X123884254Y-120209048D01*
X132724825Y-125300667D02*
X133201016Y-125300667D01*
X132629587Y-125586381D02*
X132962920Y-124586381D01*
X133296254Y-125586381D01*
X82762381Y-132666667D02*
X81762381Y-132666667D01*
X81762381Y-132428572D01*
X81810000Y-132285714D01*
X81905238Y-132190476D01*
X82000476Y-132142857D01*
X82190952Y-132095238D01*
X82333810Y-132095238D01*
X82524286Y-132142857D01*
X82619524Y-132190476D01*
X82714762Y-132285714D01*
X82762381Y-132428572D01*
X82762381Y-132666667D01*
X82857619Y-131904762D02*
X82857619Y-131142857D01*
X82667143Y-130333333D02*
X82714762Y-130380952D01*
X82762381Y-130523809D01*
X82762381Y-130619047D01*
X82714762Y-130761905D01*
X82619524Y-130857143D01*
X82524286Y-130904762D01*
X82333810Y-130952381D01*
X82190952Y-130952381D01*
X82000476Y-130904762D01*
X81905238Y-130857143D01*
X81810000Y-130761905D01*
X81762381Y-130619047D01*
X81762381Y-130523809D01*
X81810000Y-130380952D01*
X81857619Y-130333333D01*
X81762381Y-129714286D02*
X81762381Y-129523809D01*
X81810000Y-129428571D01*
X81905238Y-129333333D01*
X82095714Y-129285714D01*
X82429048Y-129285714D01*
X82619524Y-129333333D01*
X82714762Y-129428571D01*
X82762381Y-129523809D01*
X82762381Y-129714286D01*
X82714762Y-129809524D01*
X82619524Y-129904762D01*
X82429048Y-129952381D01*
X82095714Y-129952381D01*
X81905238Y-129904762D01*
X81810000Y-129809524D01*
X81762381Y-129714286D01*
X82762381Y-128857143D02*
X81762381Y-128857143D01*
X82762381Y-127904762D02*
X82762381Y-128380953D01*
X81762381Y-128380953D01*
X82857619Y-127809524D02*
X82857619Y-127047619D01*
X82762381Y-126285714D02*
X82762381Y-126857143D01*
X82762381Y-126571429D02*
X81762381Y-126571429D01*
X81905238Y-126666667D01*
X82000476Y-126761905D01*
X82048095Y-126857143D01*
X91862381Y-132536667D02*
X90862381Y-132536667D01*
X90862381Y-132298572D01*
X90910000Y-132155714D01*
X91005238Y-132060476D01*
X91100476Y-132012857D01*
X91290952Y-131965238D01*
X91433810Y-131965238D01*
X91624286Y-132012857D01*
X91719524Y-132060476D01*
X91814762Y-132155714D01*
X91862381Y-132298572D01*
X91862381Y-132536667D01*
X91957619Y-131774762D02*
X91957619Y-131012857D01*
X91767143Y-130203333D02*
X91814762Y-130250952D01*
X91862381Y-130393809D01*
X91862381Y-130489047D01*
X91814762Y-130631905D01*
X91719524Y-130727143D01*
X91624286Y-130774762D01*
X91433810Y-130822381D01*
X91290952Y-130822381D01*
X91100476Y-130774762D01*
X91005238Y-130727143D01*
X90910000Y-130631905D01*
X90862381Y-130489047D01*
X90862381Y-130393809D01*
X90910000Y-130250952D01*
X90957619Y-130203333D01*
X90862381Y-129584286D02*
X90862381Y-129393809D01*
X90910000Y-129298571D01*
X91005238Y-129203333D01*
X91195714Y-129155714D01*
X91529048Y-129155714D01*
X91719524Y-129203333D01*
X91814762Y-129298571D01*
X91862381Y-129393809D01*
X91862381Y-129584286D01*
X91814762Y-129679524D01*
X91719524Y-129774762D01*
X91529048Y-129822381D01*
X91195714Y-129822381D01*
X91005238Y-129774762D01*
X90910000Y-129679524D01*
X90862381Y-129584286D01*
X91862381Y-128727143D02*
X90862381Y-128727143D01*
X91862381Y-127774762D02*
X91862381Y-128250953D01*
X90862381Y-128250953D01*
X91957619Y-127679524D02*
X91957619Y-126917619D01*
X90957619Y-126727143D02*
X90910000Y-126679524D01*
X90862381Y-126584286D01*
X90862381Y-126346190D01*
X90910000Y-126250952D01*
X90957619Y-126203333D01*
X91052857Y-126155714D01*
X91148095Y-126155714D01*
X91290952Y-126203333D01*
X91862381Y-126774762D01*
X91862381Y-126155714D01*
X100972381Y-132646667D02*
X99972381Y-132646667D01*
X99972381Y-132408572D01*
X100020000Y-132265714D01*
X100115238Y-132170476D01*
X100210476Y-132122857D01*
X100400952Y-132075238D01*
X100543810Y-132075238D01*
X100734286Y-132122857D01*
X100829524Y-132170476D01*
X100924762Y-132265714D01*
X100972381Y-132408572D01*
X100972381Y-132646667D01*
X101067619Y-131884762D02*
X101067619Y-131122857D01*
X100877143Y-130313333D02*
X100924762Y-130360952D01*
X100972381Y-130503809D01*
X100972381Y-130599047D01*
X100924762Y-130741905D01*
X100829524Y-130837143D01*
X100734286Y-130884762D01*
X100543810Y-130932381D01*
X100400952Y-130932381D01*
X100210476Y-130884762D01*
X100115238Y-130837143D01*
X100020000Y-130741905D01*
X99972381Y-130599047D01*
X99972381Y-130503809D01*
X100020000Y-130360952D01*
X100067619Y-130313333D01*
X99972381Y-129694286D02*
X99972381Y-129503809D01*
X100020000Y-129408571D01*
X100115238Y-129313333D01*
X100305714Y-129265714D01*
X100639048Y-129265714D01*
X100829524Y-129313333D01*
X100924762Y-129408571D01*
X100972381Y-129503809D01*
X100972381Y-129694286D01*
X100924762Y-129789524D01*
X100829524Y-129884762D01*
X100639048Y-129932381D01*
X100305714Y-129932381D01*
X100115238Y-129884762D01*
X100020000Y-129789524D01*
X99972381Y-129694286D01*
X100972381Y-128837143D02*
X99972381Y-128837143D01*
X100972381Y-127884762D02*
X100972381Y-128360953D01*
X99972381Y-128360953D01*
X101067619Y-127789524D02*
X101067619Y-127027619D01*
X99972381Y-126884762D02*
X99972381Y-126265714D01*
X100353333Y-126599048D01*
X100353333Y-126456190D01*
X100400952Y-126360952D01*
X100448571Y-126313333D01*
X100543810Y-126265714D01*
X100781905Y-126265714D01*
X100877143Y-126313333D01*
X100924762Y-126360952D01*
X100972381Y-126456190D01*
X100972381Y-126741905D01*
X100924762Y-126837143D01*
X100877143Y-126884762D01*
X110032381Y-132706667D02*
X109032381Y-132706667D01*
X109032381Y-132468572D01*
X109080000Y-132325714D01*
X109175238Y-132230476D01*
X109270476Y-132182857D01*
X109460952Y-132135238D01*
X109603810Y-132135238D01*
X109794286Y-132182857D01*
X109889524Y-132230476D01*
X109984762Y-132325714D01*
X110032381Y-132468572D01*
X110032381Y-132706667D01*
X110127619Y-131944762D02*
X110127619Y-131182857D01*
X109937143Y-130373333D02*
X109984762Y-130420952D01*
X110032381Y-130563809D01*
X110032381Y-130659047D01*
X109984762Y-130801905D01*
X109889524Y-130897143D01*
X109794286Y-130944762D01*
X109603810Y-130992381D01*
X109460952Y-130992381D01*
X109270476Y-130944762D01*
X109175238Y-130897143D01*
X109080000Y-130801905D01*
X109032381Y-130659047D01*
X109032381Y-130563809D01*
X109080000Y-130420952D01*
X109127619Y-130373333D01*
X109032381Y-129754286D02*
X109032381Y-129563809D01*
X109080000Y-129468571D01*
X109175238Y-129373333D01*
X109365714Y-129325714D01*
X109699048Y-129325714D01*
X109889524Y-129373333D01*
X109984762Y-129468571D01*
X110032381Y-129563809D01*
X110032381Y-129754286D01*
X109984762Y-129849524D01*
X109889524Y-129944762D01*
X109699048Y-129992381D01*
X109365714Y-129992381D01*
X109175238Y-129944762D01*
X109080000Y-129849524D01*
X109032381Y-129754286D01*
X110032381Y-128897143D02*
X109032381Y-128897143D01*
X110032381Y-127944762D02*
X110032381Y-128420953D01*
X109032381Y-128420953D01*
X110127619Y-127849524D02*
X110127619Y-127087619D01*
X109365714Y-126420952D02*
X110032381Y-126420952D01*
X108984762Y-126659048D02*
X109699048Y-126897143D01*
X109699048Y-126278095D01*
X144516667Y-106662381D02*
X144516667Y-107376667D01*
X144469047Y-107519524D01*
X144373809Y-107614762D01*
X144230952Y-107662381D01*
X144135714Y-107662381D01*
X145516667Y-107662381D02*
X144945238Y-107662381D01*
X145230952Y-107662381D02*
X145230952Y-106662381D01*
X145135714Y-106805238D01*
X145040476Y-106900476D01*
X144945238Y-106948095D01*
X88426667Y-122452381D02*
X88426667Y-123166667D01*
X88379047Y-123309524D01*
X88283809Y-123404762D01*
X88140952Y-123452381D01*
X88045714Y-123452381D01*
X89331429Y-122785714D02*
X89331429Y-123452381D01*
X89093333Y-122404762D02*
X88855238Y-123119048D01*
X89474286Y-123119048D01*
X97456667Y-122402381D02*
X97456667Y-123116667D01*
X97409047Y-123259524D01*
X97313809Y-123354762D01*
X97170952Y-123402381D01*
X97075714Y-123402381D01*
X98409048Y-122402381D02*
X97932857Y-122402381D01*
X97885238Y-122878571D01*
X97932857Y-122830952D01*
X98028095Y-122783333D01*
X98266191Y-122783333D01*
X98361429Y-122830952D01*
X98409048Y-122878571D01*
X98456667Y-122973810D01*
X98456667Y-123211905D01*
X98409048Y-123307143D01*
X98361429Y-123354762D01*
X98266191Y-123402381D01*
X98028095Y-123402381D01*
X97932857Y-123354762D01*
X97885238Y-123307143D01*
X106496667Y-122422381D02*
X106496667Y-123136667D01*
X106449047Y-123279524D01*
X106353809Y-123374762D01*
X106210952Y-123422381D01*
X106115714Y-123422381D01*
X107401429Y-122422381D02*
X107210952Y-122422381D01*
X107115714Y-122470000D01*
X107068095Y-122517619D01*
X106972857Y-122660476D01*
X106925238Y-122850952D01*
X106925238Y-123231905D01*
X106972857Y-123327143D01*
X107020476Y-123374762D01*
X107115714Y-123422381D01*
X107306191Y-123422381D01*
X107401429Y-123374762D01*
X107449048Y-123327143D01*
X107496667Y-123231905D01*
X107496667Y-122993810D01*
X107449048Y-122898571D01*
X107401429Y-122850952D01*
X107306191Y-122803333D01*
X107115714Y-122803333D01*
X107020476Y-122850952D01*
X106972857Y-122898571D01*
X106925238Y-122993810D01*
X115466667Y-122402381D02*
X115466667Y-123116667D01*
X115419047Y-123259524D01*
X115323809Y-123354762D01*
X115180952Y-123402381D01*
X115085714Y-123402381D01*
X115847619Y-122402381D02*
X116514286Y-122402381D01*
X116085714Y-123402381D01*
X90672381Y-85782857D02*
X90672381Y-86259048D01*
X89672381Y-86259048D01*
X90624762Y-85497143D02*
X90672381Y-85354286D01*
X90672381Y-85116190D01*
X90624762Y-85020952D01*
X90577143Y-84973333D01*
X90481905Y-84925714D01*
X90386667Y-84925714D01*
X90291429Y-84973333D01*
X90243810Y-85020952D01*
X90196190Y-85116190D01*
X90148571Y-85306667D01*
X90100952Y-85401905D01*
X90053333Y-85449524D01*
X89958095Y-85497143D01*
X89862857Y-85497143D01*
X89767619Y-85449524D01*
X89720000Y-85401905D01*
X89672381Y-85306667D01*
X89672381Y-85068571D01*
X89720000Y-84925714D01*
X90672381Y-83973333D02*
X90672381Y-84544762D01*
X90672381Y-84259048D02*
X89672381Y-84259048D01*
X89815238Y-84354286D01*
X89910476Y-84449524D01*
X89958095Y-84544762D01*
X61223334Y-104202381D02*
X60890000Y-103726190D01*
X60651905Y-104202381D02*
X60651905Y-103202381D01*
X61032858Y-103202381D01*
X61128096Y-103250000D01*
X61175715Y-103297619D01*
X61223334Y-103392857D01*
X61223334Y-103535714D01*
X61175715Y-103630952D01*
X61128096Y-103678571D01*
X61032858Y-103726190D01*
X60651905Y-103726190D01*
X62175715Y-104202381D02*
X61604286Y-104202381D01*
X61890000Y-104202381D02*
X61890000Y-103202381D01*
X61794762Y-103345238D01*
X61699524Y-103440476D01*
X61604286Y-103488095D01*
X61223334Y-100422381D02*
X60890000Y-99946190D01*
X60651905Y-100422381D02*
X60651905Y-99422381D01*
X61032858Y-99422381D01*
X61128096Y-99470000D01*
X61175715Y-99517619D01*
X61223334Y-99612857D01*
X61223334Y-99755714D01*
X61175715Y-99850952D01*
X61128096Y-99898571D01*
X61032858Y-99946190D01*
X60651905Y-99946190D01*
X61604286Y-99517619D02*
X61651905Y-99470000D01*
X61747143Y-99422381D01*
X61985239Y-99422381D01*
X62080477Y-99470000D01*
X62128096Y-99517619D01*
X62175715Y-99612857D01*
X62175715Y-99708095D01*
X62128096Y-99850952D01*
X61556667Y-100422381D01*
X62175715Y-100422381D01*
X61223334Y-96602381D02*
X60890000Y-96126190D01*
X60651905Y-96602381D02*
X60651905Y-95602381D01*
X61032858Y-95602381D01*
X61128096Y-95650000D01*
X61175715Y-95697619D01*
X61223334Y-95792857D01*
X61223334Y-95935714D01*
X61175715Y-96030952D01*
X61128096Y-96078571D01*
X61032858Y-96126190D01*
X60651905Y-96126190D01*
X61556667Y-95602381D02*
X62175715Y-95602381D01*
X61842381Y-95983333D01*
X61985239Y-95983333D01*
X62080477Y-96030952D01*
X62128096Y-96078571D01*
X62175715Y-96173810D01*
X62175715Y-96411905D01*
X62128096Y-96507143D01*
X62080477Y-96554762D01*
X61985239Y-96602381D01*
X61699524Y-96602381D01*
X61604286Y-96554762D01*
X61556667Y-96507143D01*
X61223334Y-92662381D02*
X60890000Y-92186190D01*
X60651905Y-92662381D02*
X60651905Y-91662381D01*
X61032858Y-91662381D01*
X61128096Y-91710000D01*
X61175715Y-91757619D01*
X61223334Y-91852857D01*
X61223334Y-91995714D01*
X61175715Y-92090952D01*
X61128096Y-92138571D01*
X61032858Y-92186190D01*
X60651905Y-92186190D01*
X62080477Y-91995714D02*
X62080477Y-92662381D01*
X61842381Y-91614762D02*
X61604286Y-92329048D01*
X62223334Y-92329048D01*
X88913334Y-119062381D02*
X88580000Y-118586190D01*
X88341905Y-119062381D02*
X88341905Y-118062381D01*
X88722858Y-118062381D01*
X88818096Y-118110000D01*
X88865715Y-118157619D01*
X88913334Y-118252857D01*
X88913334Y-118395714D01*
X88865715Y-118490952D01*
X88818096Y-118538571D01*
X88722858Y-118586190D01*
X88341905Y-118586190D01*
X89818096Y-118062381D02*
X89341905Y-118062381D01*
X89294286Y-118538571D01*
X89341905Y-118490952D01*
X89437143Y-118443333D01*
X89675239Y-118443333D01*
X89770477Y-118490952D01*
X89818096Y-118538571D01*
X89865715Y-118633810D01*
X89865715Y-118871905D01*
X89818096Y-118967143D01*
X89770477Y-119014762D01*
X89675239Y-119062381D01*
X89437143Y-119062381D01*
X89341905Y-119014762D01*
X89294286Y-118967143D01*
X84883334Y-108042381D02*
X84550000Y-107566190D01*
X84311905Y-108042381D02*
X84311905Y-107042381D01*
X84692858Y-107042381D01*
X84788096Y-107090000D01*
X84835715Y-107137619D01*
X84883334Y-107232857D01*
X84883334Y-107375714D01*
X84835715Y-107470952D01*
X84788096Y-107518571D01*
X84692858Y-107566190D01*
X84311905Y-107566190D01*
X85740477Y-107042381D02*
X85550000Y-107042381D01*
X85454762Y-107090000D01*
X85407143Y-107137619D01*
X85311905Y-107280476D01*
X85264286Y-107470952D01*
X85264286Y-107851905D01*
X85311905Y-107947143D01*
X85359524Y-107994762D01*
X85454762Y-108042381D01*
X85645239Y-108042381D01*
X85740477Y-107994762D01*
X85788096Y-107947143D01*
X85835715Y-107851905D01*
X85835715Y-107613810D01*
X85788096Y-107518571D01*
X85740477Y-107470952D01*
X85645239Y-107423333D01*
X85454762Y-107423333D01*
X85359524Y-107470952D01*
X85311905Y-107518571D01*
X85264286Y-107613810D01*
X101243334Y-118922381D02*
X100910000Y-118446190D01*
X100671905Y-118922381D02*
X100671905Y-117922381D01*
X101052858Y-117922381D01*
X101148096Y-117970000D01*
X101195715Y-118017619D01*
X101243334Y-118112857D01*
X101243334Y-118255714D01*
X101195715Y-118350952D01*
X101148096Y-118398571D01*
X101052858Y-118446190D01*
X100671905Y-118446190D01*
X101576667Y-117922381D02*
X102243334Y-117922381D01*
X101814762Y-118922381D01*
X97193334Y-108102381D02*
X96860000Y-107626190D01*
X96621905Y-108102381D02*
X96621905Y-107102381D01*
X97002858Y-107102381D01*
X97098096Y-107150000D01*
X97145715Y-107197619D01*
X97193334Y-107292857D01*
X97193334Y-107435714D01*
X97145715Y-107530952D01*
X97098096Y-107578571D01*
X97002858Y-107626190D01*
X96621905Y-107626190D01*
X97764762Y-107530952D02*
X97669524Y-107483333D01*
X97621905Y-107435714D01*
X97574286Y-107340476D01*
X97574286Y-107292857D01*
X97621905Y-107197619D01*
X97669524Y-107150000D01*
X97764762Y-107102381D01*
X97955239Y-107102381D01*
X98050477Y-107150000D01*
X98098096Y-107197619D01*
X98145715Y-107292857D01*
X98145715Y-107340476D01*
X98098096Y-107435714D01*
X98050477Y-107483333D01*
X97955239Y-107530952D01*
X97764762Y-107530952D01*
X97669524Y-107578571D01*
X97621905Y-107626190D01*
X97574286Y-107721429D01*
X97574286Y-107911905D01*
X97621905Y-108007143D01*
X97669524Y-108054762D01*
X97764762Y-108102381D01*
X97955239Y-108102381D01*
X98050477Y-108054762D01*
X98098096Y-108007143D01*
X98145715Y-107911905D01*
X98145715Y-107721429D01*
X98098096Y-107626190D01*
X98050477Y-107578571D01*
X97955239Y-107530952D01*
X113543334Y-119102381D02*
X113210000Y-118626190D01*
X112971905Y-119102381D02*
X112971905Y-118102381D01*
X113352858Y-118102381D01*
X113448096Y-118150000D01*
X113495715Y-118197619D01*
X113543334Y-118292857D01*
X113543334Y-118435714D01*
X113495715Y-118530952D01*
X113448096Y-118578571D01*
X113352858Y-118626190D01*
X112971905Y-118626190D01*
X114019524Y-119102381D02*
X114210000Y-119102381D01*
X114305239Y-119054762D01*
X114352858Y-119007143D01*
X114448096Y-118864286D01*
X114495715Y-118673810D01*
X114495715Y-118292857D01*
X114448096Y-118197619D01*
X114400477Y-118150000D01*
X114305239Y-118102381D01*
X114114762Y-118102381D01*
X114019524Y-118150000D01*
X113971905Y-118197619D01*
X113924286Y-118292857D01*
X113924286Y-118530952D01*
X113971905Y-118626190D01*
X114019524Y-118673810D01*
X114114762Y-118721429D01*
X114305239Y-118721429D01*
X114400477Y-118673810D01*
X114448096Y-118626190D01*
X114495715Y-118530952D01*
X109057143Y-108122381D02*
X108723809Y-107646190D01*
X108485714Y-108122381D02*
X108485714Y-107122381D01*
X108866667Y-107122381D01*
X108961905Y-107170000D01*
X109009524Y-107217619D01*
X109057143Y-107312857D01*
X109057143Y-107455714D01*
X109009524Y-107550952D01*
X108961905Y-107598571D01*
X108866667Y-107646190D01*
X108485714Y-107646190D01*
X110009524Y-108122381D02*
X109438095Y-108122381D01*
X109723809Y-108122381D02*
X109723809Y-107122381D01*
X109628571Y-107265238D01*
X109533333Y-107360476D01*
X109438095Y-107408095D01*
X110628571Y-107122381D02*
X110723810Y-107122381D01*
X110819048Y-107170000D01*
X110866667Y-107217619D01*
X110914286Y-107312857D01*
X110961905Y-107503333D01*
X110961905Y-107741429D01*
X110914286Y-107931905D01*
X110866667Y-108027143D01*
X110819048Y-108074762D01*
X110723810Y-108122381D01*
X110628571Y-108122381D01*
X110533333Y-108074762D01*
X110485714Y-108027143D01*
X110438095Y-107931905D01*
X110390476Y-107741429D01*
X110390476Y-107503333D01*
X110438095Y-107312857D01*
X110485714Y-107217619D01*
X110533333Y-107170000D01*
X110628571Y-107122381D01*
X121187143Y-108052381D02*
X120853809Y-107576190D01*
X120615714Y-108052381D02*
X120615714Y-107052381D01*
X120996667Y-107052381D01*
X121091905Y-107100000D01*
X121139524Y-107147619D01*
X121187143Y-107242857D01*
X121187143Y-107385714D01*
X121139524Y-107480952D01*
X121091905Y-107528571D01*
X120996667Y-107576190D01*
X120615714Y-107576190D01*
X122139524Y-108052381D02*
X121568095Y-108052381D01*
X121853809Y-108052381D02*
X121853809Y-107052381D01*
X121758571Y-107195238D01*
X121663333Y-107290476D01*
X121568095Y-107338095D01*
X122520476Y-107147619D02*
X122568095Y-107100000D01*
X122663333Y-107052381D01*
X122901429Y-107052381D01*
X122996667Y-107100000D01*
X123044286Y-107147619D01*
X123091905Y-107242857D01*
X123091905Y-107338095D01*
X123044286Y-107480952D01*
X122472857Y-108052381D01*
X123091905Y-108052381D01*
D16*
X135804001Y-87618429D02*
X135912858Y-87654714D01*
X136094287Y-87654714D01*
X136166858Y-87618429D01*
X136203144Y-87582143D01*
X136239429Y-87509571D01*
X136239429Y-87437000D01*
X136203144Y-87364429D01*
X136166858Y-87328143D01*
X136094287Y-87291857D01*
X135949144Y-87255571D01*
X135876572Y-87219286D01*
X135840287Y-87183000D01*
X135804001Y-87110429D01*
X135804001Y-87037857D01*
X135840287Y-86965286D01*
X135876572Y-86929000D01*
X135949144Y-86892714D01*
X136130572Y-86892714D01*
X136239429Y-86929000D01*
X136493429Y-86892714D02*
X136674858Y-87654714D01*
X136820001Y-87110429D01*
X136965143Y-87654714D01*
X137146572Y-86892714D01*
X137836000Y-87654714D02*
X137400572Y-87654714D01*
X137618286Y-87654714D02*
X137618286Y-86892714D01*
X137545715Y-87001571D01*
X137473143Y-87074143D01*
X137400572Y-87110429D01*
D11*
X85004762Y-141603333D02*
X85052381Y-141460476D01*
X85052381Y-141222380D01*
X85004762Y-141127142D01*
X84957143Y-141079523D01*
X84861905Y-141031904D01*
X84766667Y-141031904D01*
X84671429Y-141079523D01*
X84623810Y-141127142D01*
X84576190Y-141222380D01*
X84528571Y-141412857D01*
X84480952Y-141508095D01*
X84433333Y-141555714D01*
X84338095Y-141603333D01*
X84242857Y-141603333D01*
X84147619Y-141555714D01*
X84100000Y-141508095D01*
X84052381Y-141412857D01*
X84052381Y-141174761D01*
X84100000Y-141031904D01*
X84052381Y-140698571D02*
X85052381Y-140460476D01*
X84338095Y-140269999D01*
X85052381Y-140079523D01*
X84052381Y-139841428D01*
X84147619Y-139508095D02*
X84100000Y-139460476D01*
X84052381Y-139365238D01*
X84052381Y-139127142D01*
X84100000Y-139031904D01*
X84147619Y-138984285D01*
X84242857Y-138936666D01*
X84338095Y-138936666D01*
X84480952Y-138984285D01*
X85052381Y-139555714D01*
X85052381Y-138936666D01*
X93994762Y-141603333D02*
X94042381Y-141460476D01*
X94042381Y-141222380D01*
X93994762Y-141127142D01*
X93947143Y-141079523D01*
X93851905Y-141031904D01*
X93756667Y-141031904D01*
X93661429Y-141079523D01*
X93613810Y-141127142D01*
X93566190Y-141222380D01*
X93518571Y-141412857D01*
X93470952Y-141508095D01*
X93423333Y-141555714D01*
X93328095Y-141603333D01*
X93232857Y-141603333D01*
X93137619Y-141555714D01*
X93090000Y-141508095D01*
X93042381Y-141412857D01*
X93042381Y-141174761D01*
X93090000Y-141031904D01*
X93042381Y-140698571D02*
X94042381Y-140460476D01*
X93328095Y-140269999D01*
X94042381Y-140079523D01*
X93042381Y-139841428D01*
X93042381Y-139555714D02*
X93042381Y-138936666D01*
X93423333Y-139270000D01*
X93423333Y-139127142D01*
X93470952Y-139031904D01*
X93518571Y-138984285D01*
X93613810Y-138936666D01*
X93851905Y-138936666D01*
X93947143Y-138984285D01*
X93994762Y-139031904D01*
X94042381Y-139127142D01*
X94042381Y-139412857D01*
X93994762Y-139508095D01*
X93947143Y-139555714D01*
X102984762Y-141603333D02*
X103032381Y-141460476D01*
X103032381Y-141222380D01*
X102984762Y-141127142D01*
X102937143Y-141079523D01*
X102841905Y-141031904D01*
X102746667Y-141031904D01*
X102651429Y-141079523D01*
X102603810Y-141127142D01*
X102556190Y-141222380D01*
X102508571Y-141412857D01*
X102460952Y-141508095D01*
X102413333Y-141555714D01*
X102318095Y-141603333D01*
X102222857Y-141603333D01*
X102127619Y-141555714D01*
X102080000Y-141508095D01*
X102032381Y-141412857D01*
X102032381Y-141174761D01*
X102080000Y-141031904D01*
X102032381Y-140698571D02*
X103032381Y-140460476D01*
X102318095Y-140269999D01*
X103032381Y-140079523D01*
X102032381Y-139841428D01*
X102365714Y-139031904D02*
X103032381Y-139031904D01*
X101984762Y-139270000D02*
X102699048Y-139508095D01*
X102699048Y-138889047D01*
X112014762Y-141603333D02*
X112062381Y-141460476D01*
X112062381Y-141222380D01*
X112014762Y-141127142D01*
X111967143Y-141079523D01*
X111871905Y-141031904D01*
X111776667Y-141031904D01*
X111681429Y-141079523D01*
X111633810Y-141127142D01*
X111586190Y-141222380D01*
X111538571Y-141412857D01*
X111490952Y-141508095D01*
X111443333Y-141555714D01*
X111348095Y-141603333D01*
X111252857Y-141603333D01*
X111157619Y-141555714D01*
X111110000Y-141508095D01*
X111062381Y-141412857D01*
X111062381Y-141174761D01*
X111110000Y-141031904D01*
X111062381Y-140698571D02*
X112062381Y-140460476D01*
X111348095Y-140269999D01*
X112062381Y-140079523D01*
X111062381Y-139841428D01*
X111062381Y-138984285D02*
X111062381Y-139460476D01*
X111538571Y-139508095D01*
X111490952Y-139460476D01*
X111443333Y-139365238D01*
X111443333Y-139127142D01*
X111490952Y-139031904D01*
X111538571Y-138984285D01*
X111633810Y-138936666D01*
X111871905Y-138936666D01*
X111967143Y-138984285D01*
X112014762Y-139031904D01*
X112062381Y-139127142D01*
X112062381Y-139365238D01*
X112014762Y-139460476D01*
X111967143Y-139508095D01*
X63432381Y-120262857D02*
X62956190Y-120596191D01*
X63432381Y-120834286D02*
X62432381Y-120834286D01*
X62432381Y-120453333D01*
X62480000Y-120358095D01*
X62527619Y-120310476D01*
X62622857Y-120262857D01*
X62765714Y-120262857D01*
X62860952Y-120310476D01*
X62908571Y-120358095D01*
X62956190Y-120453333D01*
X62956190Y-120834286D01*
X63432381Y-119310476D02*
X63432381Y-119881905D01*
X63432381Y-119596191D02*
X62432381Y-119596191D01*
X62575238Y-119691429D01*
X62670476Y-119786667D01*
X62718095Y-119881905D01*
X62432381Y-118977143D02*
X62432381Y-118358095D01*
X62813333Y-118691429D01*
X62813333Y-118548571D01*
X62860952Y-118453333D01*
X62908571Y-118405714D01*
X63003810Y-118358095D01*
X63241905Y-118358095D01*
X63337143Y-118405714D01*
X63384762Y-118453333D01*
X63432381Y-118548571D01*
X63432381Y-118834286D01*
X63384762Y-118929524D01*
X63337143Y-118977143D01*
X63522381Y-120212857D02*
X63046190Y-120546191D01*
X63522381Y-120784286D02*
X62522381Y-120784286D01*
X62522381Y-120403333D01*
X62570000Y-120308095D01*
X62617619Y-120260476D01*
X62712857Y-120212857D01*
X62855714Y-120212857D01*
X62950952Y-120260476D01*
X62998571Y-120308095D01*
X63046190Y-120403333D01*
X63046190Y-120784286D01*
X63522381Y-119260476D02*
X63522381Y-119831905D01*
X63522381Y-119546191D02*
X62522381Y-119546191D01*
X62665238Y-119641429D01*
X62760476Y-119736667D01*
X62808095Y-119831905D01*
X62855714Y-118403333D02*
X63522381Y-118403333D01*
X62474762Y-118641429D02*
X63189048Y-118879524D01*
X63189048Y-118260476D01*
M02*
