G04 #@! TF.FileFunction,Soldermask,Top*
%FSLAX46Y46*%
G04 Gerber Fmt 4.6, Leading zero omitted, Abs format (unit mm)*
G04 Created by KiCad (PCBNEW 4.0.7) date 07/01/18 12:19:37*
%MOMM*%
%LPD*%
G01*
G04 APERTURE LIST*
%ADD10C,0.100000*%
%ADD11R,1.700000X1.700000*%
%ADD12C,1.700000*%
%ADD13C,5.400000*%
%ADD14R,2.400000X2.100000*%
%ADD15R,2.686000X1.974800*%
%ADD16O,2.686000X1.974800*%
%ADD17R,2.432000X2.127200*%
%ADD18O,2.432000X2.127200*%
%ADD19R,2.400000X2.000000*%
%ADD20R,2.899360X4.900880*%
%ADD21O,2.899360X4.900880*%
%ADD22C,2.099260*%
%ADD23R,2.099260X2.099260*%
%ADD24R,3.900000X3.900000*%
%ADD25R,2.432000X2.432000*%
%ADD26O,2.432000X2.432000*%
%ADD27R,1.200000X1.700000*%
%ADD28R,2.200000X2.200000*%
%ADD29O,2.200000X2.200000*%
%ADD30C,2.200000*%
%ADD31C,3.400000*%
%ADD32C,2.400000*%
%ADD33R,2.100000X2.400000*%
G04 APERTURE END LIST*
D10*
D11*
X73040000Y-128280000D03*
D12*
X75540000Y-128280000D03*
D13*
X119870000Y-90720000D03*
X131560000Y-83290000D03*
X79480000Y-132640000D03*
D14*
X127820000Y-116810000D03*
X123820000Y-116810000D03*
D15*
X53210000Y-90420000D03*
D16*
X53210000Y-92960000D03*
X53210000Y-95500000D03*
X53210000Y-98040000D03*
X53210000Y-100580000D03*
X53210000Y-103120000D03*
X53210000Y-105660000D03*
X53210000Y-108200000D03*
X53210000Y-110740000D03*
X53210000Y-113280000D03*
X53210000Y-115820000D03*
X53210000Y-118360000D03*
X53210000Y-120900000D03*
X53210000Y-123440000D03*
X53210000Y-125980000D03*
X68450000Y-125980000D03*
X68450000Y-123440000D03*
X68450000Y-120900000D03*
X68450000Y-118360000D03*
X68450000Y-115820000D03*
X68450000Y-113280000D03*
X68450000Y-110740000D03*
X68450000Y-108200000D03*
X68450000Y-105660000D03*
X68450000Y-103120000D03*
X68450000Y-100580000D03*
X68450000Y-98040000D03*
X68450000Y-95500000D03*
X68450000Y-92960000D03*
X68450000Y-90420000D03*
D17*
X74230000Y-107150000D03*
D18*
X74230000Y-104610000D03*
X74230000Y-102070000D03*
X74230000Y-99530000D03*
X74230000Y-96990000D03*
X74230000Y-94450000D03*
X74230000Y-91910000D03*
X74230000Y-89370000D03*
D19*
X120100000Y-82160000D03*
X124100000Y-82160000D03*
X111450000Y-82160000D03*
X115450000Y-82160000D03*
D11*
X72960000Y-120780000D03*
D12*
X75460000Y-120780000D03*
D19*
X96460000Y-81950000D03*
X92460000Y-81950000D03*
D20*
X57144000Y-136120000D03*
D21*
X68320000Y-136120000D03*
D20*
X124774920Y-139100000D03*
D21*
X135950920Y-139100000D03*
D20*
X124774920Y-131300000D03*
D21*
X135950920Y-131300000D03*
D20*
X124834920Y-123610000D03*
D21*
X136010920Y-123610000D03*
D22*
X84850000Y-134230000D03*
D23*
X84850000Y-124070000D03*
D22*
X93950000Y-134100000D03*
D23*
X93950000Y-123940000D03*
D22*
X103060000Y-134210000D03*
D23*
X103060000Y-124050000D03*
D22*
X112120000Y-134270000D03*
D23*
X112120000Y-124110000D03*
D24*
X136400000Y-112960000D03*
X142400000Y-112960000D03*
X139400000Y-108260000D03*
D25*
X68270000Y-142220000D03*
D26*
X65730000Y-142220000D03*
D25*
X141640000Y-123630000D03*
D26*
X141640000Y-126170000D03*
D17*
X88820000Y-125520000D03*
D18*
X88820000Y-128060000D03*
X88820000Y-130600000D03*
X88820000Y-133140000D03*
D17*
X97820000Y-125520000D03*
D18*
X97820000Y-128060000D03*
X97820000Y-130600000D03*
X97820000Y-133140000D03*
D17*
X106810000Y-125520000D03*
D18*
X106810000Y-128060000D03*
X106810000Y-130600000D03*
X106810000Y-133140000D03*
D17*
X115820000Y-125500000D03*
D18*
X115820000Y-128040000D03*
X115820000Y-130580000D03*
X115820000Y-133120000D03*
D27*
X88470000Y-81990000D03*
X87190000Y-81990000D03*
X85930000Y-81990000D03*
X84660000Y-81990000D03*
X83380000Y-81990000D03*
X82110000Y-81990000D03*
X80850000Y-81990000D03*
X79570000Y-81990000D03*
X79570000Y-88290000D03*
X80850000Y-88290000D03*
X82110000Y-88290000D03*
X83380000Y-88290000D03*
X84660000Y-88290000D03*
X85930000Y-88290000D03*
X87190000Y-88290000D03*
X88470000Y-88290000D03*
D28*
X87030000Y-113530000D03*
D29*
X84490000Y-113530000D03*
X81950000Y-113530000D03*
D28*
X99380000Y-113560000D03*
D29*
X96840000Y-113560000D03*
X94300000Y-113560000D03*
D28*
X111680000Y-113510000D03*
D29*
X109140000Y-113510000D03*
X106600000Y-113510000D03*
D28*
X123820000Y-113460000D03*
D29*
X121280000Y-113460000D03*
X118740000Y-113460000D03*
D14*
X63390000Y-101900000D03*
X59390000Y-101900000D03*
X63390000Y-98120000D03*
X59390000Y-98120000D03*
X63390000Y-94300000D03*
X59390000Y-94300000D03*
X63390000Y-90360000D03*
X59390000Y-90360000D03*
X91070000Y-116600000D03*
X87070000Y-116600000D03*
X83050000Y-109440000D03*
X87050000Y-109440000D03*
X103360000Y-116700000D03*
X99360000Y-116700000D03*
X95360000Y-109500000D03*
X99360000Y-109500000D03*
X115700000Y-116700000D03*
X111700000Y-116700000D03*
X107700000Y-109520000D03*
X111700000Y-109520000D03*
X119830000Y-109450000D03*
X123830000Y-109450000D03*
D30*
X139320000Y-103810000D03*
X139320000Y-89310000D03*
X136820000Y-89310000D03*
X134320000Y-89310000D03*
X134320000Y-103810000D03*
D31*
X131220000Y-96810000D03*
X142420000Y-96810000D03*
D32*
X91100000Y-143520000D03*
X86600000Y-143520000D03*
X91100000Y-137020000D03*
X86600000Y-137020000D03*
X100090000Y-143520000D03*
X95590000Y-143520000D03*
X100090000Y-137020000D03*
X95590000Y-137020000D03*
X109080000Y-143520000D03*
X104580000Y-143520000D03*
X109080000Y-137020000D03*
X104580000Y-137020000D03*
X118110000Y-143520000D03*
X113610000Y-143520000D03*
X118110000Y-137020000D03*
X113610000Y-137020000D03*
D13*
X64030000Y-84610000D03*
D28*
X63340000Y-113520000D03*
D29*
X60800000Y-113520000D03*
X58260000Y-113520000D03*
D33*
X64830000Y-121620000D03*
X64830000Y-117620000D03*
X61220000Y-117570000D03*
X61220000Y-121570000D03*
M02*
